<?xml version="1.0" encoding="utf-8"?>
<!-- Generator: Adobe Illustrator 17.1.0, SVG Export Plug-In . SVG Version: 6.00 Build 0)  -->
<!DOCTYPE svg PUBLIC "-//W3C//DTD SVG 1.1//EN" "http://www.w3.org/Graphics/SVG/1.1/DTD/svg11.dtd">
<svg version="1.1" id="Layer_1" xmlns="http://www.w3.org/2000/svg" xmlns:xlink="http://www.w3.org/1999/xlink" x="0px" y="0px"
	 viewBox="0 0 73.5 73.5" enable-background="new 0 0 73.5 73.5" xml:space="preserve">
<path fill="#F9CD16" d="M73.5,0v72.552c0,0.524-0.424,0.948-0.948,0.948H0"/>
<path fill="#FFFFFF" d="M50.358,42.596l1.963,3.977c0.099,0.2,0.289,0.338,0.51,0.37l4.389,0.638
	c0.555,0.081,0.777,0.763,0.375,1.155l-3.176,3.095c-0.16,0.156-0.232,0.38-0.195,0.599l0.75,4.371
	c0.095,0.553-0.486,0.975-0.982,0.714l-3.925-2.064c-0.197-0.104-0.433-0.104-0.63,0l-3.925,2.064
	c-0.497,0.261-1.077-0.161-0.982-0.714l0.75-4.371c0.038-0.22-0.035-0.444-0.195-0.599l-3.176-3.095
	c-0.402-0.392-0.18-1.074,0.375-1.155l4.389-0.638c0.221-0.032,0.411-0.171,0.51-0.37l1.963-3.977
	C49.392,42.093,50.11,42.093,50.358,42.596z"/>
</svg>
